<?xml version="1.0" encoding="utf-8"?>
<!-- Generator: Adobe Illustrator 26.0.1, SVG Export Plug-In . SVG Version: 6.00 Build 0)  -->
<svg version="1.1" id="Layer_1" xmlns="http://www.w3.org/2000/svg" xmlns:xlink="http://www.w3.org/1999/xlink" x="0px" y="0px"
	 viewBox="0 0 554.2 432.5" style="enable-background:new 0 0 554.2 432.5;" xml:space="preserve">
<g>
	<path d="M547.7,191.8c-0.6-1.9-2.1-3.3-4-3.9c-1.9-0.6-3.9-0.3-5.5,0.8c-2.1,1.5-3.1,4-2.5,6.5c1.6,7,3,14.4,2.3,20.8
		c-1.5,17.3-7.6,27.5-18.3,40.3c-3.3,4-6.6,8.2-9.7,12.3c-4.4,5.7-9,11.7-13.9,17.2l-2.7,3.2c-8.3,10-17,20.3-23.8,31.4
		c-4.9,8-8,17.6-9.7,24.1c-0.5,1.9-1,3.7-1.5,5.6c-2.2,8.5-4.2,16.5-10.2,22.3c-7.1,6.9-17.5,7.8-28.5,8.8
		c-4.8,0.4-9.8,0.9-14.5,1.8c-6.9,1.2-14.3,3.9-20.3,7.3c-5.7,3-11.4,5.6-16.8,7.7c-17.8,7.2-30.9,5.5-47.6,3.4
		c-4-0.5-8.2-1.1-12.6-1.5c-10.1-1-21.3-1.1-33.1-0.4c-8,0.2-16.1,1.2-23.8,2.2c-8.9,1.1-18,2.2-27,2.2c0,0,0,0,0,0
		c-18.6,0-33.9-3.6-47-11.1c-12.1-6.9-22.4-15.7-33.4-25c-4.8-4.1-9.8-8.4-14.9-12.3c-10-8.1-22.4-15.7-35.8-22
		c-4.4-2.1-9.1-4.2-13.6-6.1c-10.1-4.4-20.5-8.9-28.3-15c-25.6-24.1-25.7-47-23.5-82.2c0.9-16.5,1.3-34.1-1-51.1c-0.3-2-2-3.5-4-3.5
		c-2,0-3.7,1.5-4,3.5c-2.2,16.1-5.8,32-9.2,47.4c-2,8.8-4,17.9-5.8,27c-12.5,63.5,12.5,75.7,27.4,82.9c5.5,2.7,11.4,4.5,18.3,6.7
		c14.3,4.4,32,10,53.8,25.8c4.8,3.5,12.5,9.8,18.7,14.8c2.2,1.8,4.2,3.5,5.9,4.8c4.9,4.1,9.5,8.4,14,12.5
		c16.1,14.9,31.3,29,56.2,31.1c3.6,0.3,7,0.5,10.4,0.5c4.1,0,8-0.2,11.6-0.7c8.3-1,17.1-3.3,27.4-7.4c2.5-1,4.9-2,7.2-3
		c5.5-2.3,10.6-4.5,16.3-6.1c4-1.2,8.1-1.6,11.6-1.8c8.4-0.6,16.7,2.5,25.3,5.8c3.4,1.3,7,2.7,10.5,3.8c8.8,2.7,18.3,3,28.4,1
		c7.4-1.5,14.1-5.5,20.6-9.4c4.2-2.5,8.1-4.9,12-6.4c2.8-1.1,5.8-2.5,8.7-3.9c3.1-1.5,6-2.9,8.6-3.8c8.8-2.7,17.4-2.1,26.5-1.5
		c13,0.9,26.4,1.8,40.2-7.4c8.2-5.3,15.5-14.9,19.8-26.1c1.6-3.9,2.9-7.8,4.1-11.6c2.2-6.6,4.2-12.8,7.7-18.6
		c5.5-9.1,12.5-18.3,19.3-27.2c1.3-1.7,2.6-3.4,3.9-5.1c3.5-4.7,7.7-10.4,11.6-16.3c2.5-3.9,7.6-12.2,10.2-16.3
		c4.7-7.5,9.8-16.5,12.2-26C557,226,552.4,205.6,547.7,191.8z"/>
	<path d="M512.2,178.4c0.7,0,1.1,0.7,0.9,1.3c-3.4,9.6-6.8,19.1-6.2,29.3c0.4,7.1,2.7,14,3,21.2c0.3,7.3-0.2,14.8-3.1,21.7
		c-4.4,10.2-13.8,16.9-20.4,25.5c-4.5,5.5-8.5,11.4-12,17.5c-3.7,6.3-6.3,13.1-10.7,18.9c-8.3,11.3-14.8,19.9-25.5,32.1
		c-14.5,16.5-27.1,13.9-40.7,24c-18.7,13.9-39.3,22.5-63,20.5c-15.5-1-30.5-4.4-45.9-4.2c-13.6,0.5-27,2.9-40.7,3.3
		c-23.3,1.1-47.8-2.6-68.6-13.6c-13.9-7.7-25.1-19.3-36.6-30c-9.1-8.6-18.9-16.4-28.6-24.3c-1.9-1.6-6.2-5-8.3-6.6
		c-8.6-6.3-18.1-10.6-27.8-15.7c-10.2-5.3-21.1-12.6-24.3-24.2c-3.3-10.9-1.8-22.5,0.3-33.2c2.7-13.8,7.3-27,8.6-40.9
		c0.1-0.5,0.5-0.9,1.1-0.9l0,0c0.6,0,1,0.5,1,1c0.3,20.9-8.6,41.6-6.6,62.3c1.4,15.9,9.7,22,23.7,28.8c11.4,5.4,23.9,10.8,34,18.9
		c12.9,10,26,20.1,37.8,31.4c9.1,8.4,17.9,16.9,28.3,23.4c7.4,4.3,15.5,7.5,23.8,9.9c13.4,3.9,27.5,5.3,41.8,5
		c13.6-0.1,27.3-2.4,41-2.5c15.7,0.1,31.1,3.7,46.4,5.1c29.7,3.3,54.7-11.8,74.3-32.4c5.8-5.8,11.3-12.2,18.5-16.7
		c11-7.4,23.9-12.6,32.2-23.2c4.4-5.5,7.1-12.2,10.9-18.2c3.7-6.2,7.9-12.2,12.7-17.8c6.6-8.3,16-14.7,20.5-24.4
		c2.8-6.3,3.4-13.5,3.3-20.4c-0.1-7.1-6.5-14.7-6.6-21.9c-0.3-10.6,6.7-19.7,10.5-29.4C511.4,178.6,511.8,178.4,512.2,178.4
		L512.2,178.4z"/>
	<path d="M85.6,209c-2.4,8.9-6.3,17.2-6.1,26.4c0.1,5.2,1.8,9.4,5.5,13.2c2.7,2.9,4.8,6.7,7.2,9.8c5.8,7.5,9.8,15.9,15.4,23.4
		c5.4,7.2,12.3,13.5,20.5,17.5c5.4,2.8,11.4,4.8,17.2,7.6c5.9,2.7,11.5,6.4,16.3,10.8c3.5,3.2,6.6,6.6,10.2,9.7
		c19.1,17.4,32.1,30.7,58.1,34.4c20.3,2.8,42.6,2.5,46.9,2.2c15-1.2,30.3,0.9,45.5,0.9c19.3,0,23.2-4,33.3-7.4
		c5.4-1.8,8.5-3.7,14-4.9c8.7-2.1,17.8-3.4,23.3-10c0.6-0.7,6.9-7.6,7.4-8.3c7.2-8.9,11.8-8.5,20.2-16.5
		c6.6-6.3,11.8-15.5,18.9-21.2c7.2-5.9,14.8-11.2,21.2-17.7c1.4-1.5,2.7-2.9,3.6-4.7c1.5-3.1,1.9-6.5,2.3-10.1
		c1-9.2,0-18.4-0.1-27.7c0.4-6.7,4.2-12.7,8.6-17.5c3.8-4.4,7.4-8.9,9.8-14.1c0.3-0.6,0.9-0.8,1.5-0.6l0,0c0.5,0.2,0.8,0.8,0.6,1.3
		c-3,8.5-10.8,14.6-14.4,22.7c-1.2,2.7-1.8,5.4-1.8,8.2c0.1,2.9,0.8,6,1.1,9c0.8,6.3,1.4,12.6,1.2,19c-0.2,4.5-0.6,9.7-2.9,14
		c-1.1,1.9-2.4,3.8-3.8,5.4c-6.4,7.3-14.1,13.1-21.1,19.5c-4.7,4.1-9.3,8.2-13.8,12.4c-10.9,10.3-36.1,34-36.9,34.6
		c-29.2,22.9-89,20.5-98.4,20.7c-12.3,0.2-38-0.7-50.4-0.2c-52.7,1.9-59.3-20.2-84.5-46.2c-3.1-3.3-6.5-6.3-10.2-8.8
		c-7.8-5.3-16.5-7.9-25.1-12.5c-11.6-5.9-20.5-16.2-26.6-27.3c-3.1-5.4-6.1-10.8-9.6-15.8c-2.6-3.8-5.8-7.3-8.7-10.9
		c-3-3.9-4.6-8.9-4.5-13.8c0-9.5,4.1-18.4,6.7-27.3c1.6-5.1,2.3-10.4,3.2-15.6c1.1-6.5,2.5-10.5,4.3-10.2c0.3,0,0.6,0.1,0.6,0.3
		C91.9,184.3,87.2,203,85.6,209z"/>
	<path d="M128.5,165.1c0.4,0,0.8,0.3,0.8,0.7c2.5,47.1-8.2,97.1,48.7,114.6c9.5,2.8,19.5,6.8,25.3,15.1c4.6,6.6,7.2,13.9,13.3,19.2
		c3.7,3.4,8.1,6.2,12.6,8.6c4.4,2.5,9,3.6,14.1,3.9c10.6,0.6,18.8-1.9,29.6-2.5c5.3-0.3,13.5,0.7,18.8,0.5
		c10.1-0.4,20.6-0.3,29.4-5.2c4.4-2.7,9.9-6.1,15.1-7.8c9.9-3.4,19.2-1.5,28.5-6.1c4.3-2.1,11.1-6.3,13.9-10.2
		c2.1-2.8,4.7-11.6,6.7-14.7c3.8-6.1,6.1-8.6,12-13.2c6.3-5.3,14.6-7.5,21-12.3c9.3-7.5,14.3-21.5,15.9-33c2-15.3-3.1-30.6-2.7-46.1
		c0-0.7,0.6-1.3,1.4-1.3l0,0c0.7,0,1.3,0.5,1.3,1.2c2.3,25.8,10.8,44.4-0.9,70.7c-10.2,23.6-26.3,16.9-39.6,38.7
		c-1.2,1.8-3,4.7-3.9,6.7c-4.4,9.9-18.1,20.4-34.8,24.8c-7.6,1.9-15.7,2.4-22.2,6.7c-20.7,13.8-38,9.4-49.2,9.1
		c-16.4-1-31.9,2-48.2-2.3c-5.6-1.6-11.8-3-16.5-6.3c-7.1-4.7-12.8-11.7-16.4-19.2c-4.9-10.5-11.3-15.1-22.2-18.9
		c-29.8-9.3-47.5-26.7-51.9-57.6c-2.8-19.5-1-57-0.6-63C127.6,165.5,128,165.1,128.5,165.1L128.5,165.1z"/>
	<path d="M407.5,179.9c0.8,0,1.4,0.5,1.6,1.2c1.6,7.9,2.3,11.6,4.3,19.5c1.1,4.2,2.1,8.4,2.7,12.7c0.6,4.3,1,9.2-1.2,13.3
		c-4,7.9-12.8,12-18,18.8c-3,3.6-5.5,7.6-7.5,11.8c-1.7,3.8-5,6.7-8.3,9.1c-7.1,5.2-15.6,6.8-21.7,13.1c-6,5.6-12.1,16.8-19.3,21.1
		c-3.9,2.2-8.3,4.2-12.5,6c-12.4,5.3-25.9,5.4-39.2,5.8c-4.3,0.2-8.4,0.1-12.6,0.7c-12.7,1.9-26.2,7.5-39.3,3
		c-16.6-5.3-15.8-20.2-25.5-31.5c-5.4-6.3-16.5-6.9-24.6-9.6c-9.8-3.2-16.6-9.9-21.2-18.8c-4-7.3-10-13.6-14.8-20.7
		c-2.6-3.8-5.1-8.3-5.4-12.9c-0.7-8.6,1.1-21,2.7-29.4c0.1-0.4,0.5-0.7,0.9-0.6l0.7,0.1c0.3,0.1,0.6,0.3,0.5,0.7
		c-0.2,1.9-2.2,26.6,1.9,33.7c6,9,14.7,15.7,20.6,25c1.1,1.7,2.2,3.4,3.4,5c3.6,4.6,7.9,7.5,13.7,9.3c3.9,1.3,8.5,2.4,12.9,4.6
		c4.5,2.1,11.5,3.8,14.8,7.4c8.9,9.3,9.5,24.4,22.3,29c11.4,4.1,23.2-1.1,35-2.2c4.4-0.6,9.1-0.3,13.5-0.4c12.9,0,25.4-1.6,37.3-6.2
		c3.9-1.5,7.8-3.1,11.5-5c7-4.2,13-10.8,19.2-16.4c3.2-3,7.1-5.8,11-7.9c5.6-3.2,11.3-5.9,15.8-10.2c1.5-1.4,2.3-3.1,3.3-4.9
		c4.2-7.8,10.6-14.5,17.7-19.6c4.2-3.2,8.2-6.6,9.7-11.5c0.7-3,0.5-6.1,0.1-9.2c-1-8.4-2.4-12.7-4.5-21c-0.9-3.6-2.5-7.2-3.3-10.8
		C405.9,180.8,406.6,179.9,407.5,179.9L407.5,179.9z"/>
	<path d="M182.9,230.1c3.6,12.7,13.8,22.3,26.1,27.2c3.1,1.3,6.3,2.5,9.5,3.7c3.5,1.3,7.3,2.7,10,5.2c5.3,4.8,8,10.8,13.7,14.4
		c7.6,5,18.4,5,27.6,4.1c3.5-0.3,7-1,10.6-1.1c10.2-0.4,20.3,1.5,30.2,0c5.9-1.4,9.5-6.1,13.7-10.4c2.9-3.1,6.3-6.8,10.3-9.4
		c2.3-1.5,5-2.8,7.4-3.9c8.4-4.1,18.5-6.8,24.5-13.9c1.7-2.1,2.9-4.9,3.9-7.9c1.5-4.6,2.8-10,4.8-14.7c2.2-4.7,4.2-8.9,5.8-13.8
		c2-6,2.7-12.3,3.5-18.8c0.1-0.4,0.4-0.8,0.9-0.8l0,0c0.5,0,0.9,0.3,0.9,0.8c0.6,6.5,0.3,13.2-0.8,19.8c-0.6,3.4-1.4,6.8-2.5,10.2
		c-1.1,3.4-2.1,6-2.8,9.4c-1.4,7-2.2,14.2-6.4,20.7c-6.3,9.3-17.7,13.4-27.3,18.2c-2.1,1-4.2,2-6.2,3.3
		c-6.1,4.2-10.5,10.4-16.8,15.1c-3.2,2.4-7.3,4.6-11.4,5.1c-7.3,1-14.5,0-21.7-0.5c-4.2-0.3-8.3-0.6-12.3-0.4
		c-6.1,0.6-12.3,1.3-18.5,1c-9.3-0.3-19.4-3-26-10c-3.6-3.5-6.4-8.6-9.7-11.6c-2.3-2.2-5.2-3.1-8-4.4c-3.1-1.4-6.3-2.8-9.5-4.3
		c-6.4-3-12.6-7.3-17.2-12.7c-9.9-10.7-13-21.5-12.4-35.3c0.2-6.5,0.3-16.8,0.4-23.3c0-0.5,0.4-0.9,1-0.9h0.4c0.6,0,1.1,0.5,1.1,1.1
		C179.9,196.5,179.7,218.8,182.9,230.1z"/>
	<path d="M367.2,202.7c0.5,0.1,0.8,0.6,0.7,1c-0.4,2.4-1.1,4.8-1.7,7.1c-0.8,2.7-1.4,5.5-3.1,7.8c-1.8,2.4-4.1,4.1-6.5,5.6
		c-6.8,4.2-14.4,7-18.3,14.3c-5.1,8.8-0.2,17.2-19.4,24.8c-4.2,1.7-7.1,5.3-10.9,8.2c-5.2,4.2-12.6,4.5-18.9,2.6
		c-4.2-1.3-7.8-3.5-11.7-5.1c-6-2.5-12.3-4.1-18.8-5.1c-18.2-1.7-15.4-7.4-44.1-15c-15.9-4.2-12.1-19.1-14.2-33.6
		c-1.7-7.8-3.2-11-4.8-18.9c-1.1-5.1,0-10.6,0.1-15.9c0-0.4,0.4-0.7,0.8-0.7h0.4c0.4,0,0.8,0.3,0.8,0.6c0.9,5-0.2,10.2,1.6,14.9
		c2.9,7.6,5.2,10.6,7.9,18.3c1.6,4.9,2.2,10.4,4.4,14.9c1.5,3,3.7,5.2,6.5,6.9c0,0,3.5,2.2,3.5,2.2c6.7,4.2,9.2,2.6,16.1,5.9
		c4.8,2.3,5.9,8.4,18.2,12.8c5.1,1.8,11.8,0.6,16.8,2.3c5.3,1.7,10.7,4.4,15.5,6.9c2.3,1.2,4.2,1.8,6.6,2.2c2.3,0.4,4.4,0.3,6.2-0.3
		c4.5-1.8,8.2-6.6,13.1-8.9c2.3-1.2,4.8-1.8,6.8-3.5c8.4-6.5,10.5-18.7,19.4-25.4c6.5-5,15.3-6.4,20.9-12.4c1.7-1.9,2.5-4.5,3.4-6.9
		c0.8-2.2,1-4.7,1.5-7C366.2,202.9,366.7,202.6,367.2,202.7L367.2,202.7z"/>
	<path d="M229.6,211.7c3.9,7.8,9.8,15.4,17,20.3c8.6,5,18.7,7.4,28.5,9.2c3.1,0.5,6.2,0.9,9.3,1.1c4,0.2,7.9-1.2,10.8-3.9
		c0,0,0,0,0.1-0.1c2.7-2.6,5.3-5.8,8.4-9c2.1-2.4,5.8-5.1,9.2-6.4c4.5-2,10.6-3.2,14.2-4.9c2.9-1.3,5.1-3.1,5.9-6.3
		c2-7.3,2.2-15.9,2.8-23.7c0.2-3.8,0.4-7.5,0.9-11.3c0.1-0.7,0.7-1.2,1.3-1.2l0,0c0.7,0,1.2,0.5,1.3,1.1c1.2,7.8,1.3,15.6,1.9,23.6
		c1.4,18.9-3.5,25.8-21.8,30.9c-3.6,1.1-6.2,1.9-9.1,4.7c-14.5,13.6-15.4,16.6-36.5,12.2c-10.6-2.4-21.2-5.5-30.4-11.7
		c-7.6-5.8-14.2-12.8-17.9-21.3c-7-16-2-30.5-0.4-34.4c0.2-0.4,0.4-0.8,0.9-0.8l0,0c0.6,0,1.1,0.5,1,1.1
		C226.6,185.6,227,206.5,229.6,211.7z"/>
	<path d="M318.1,190.1c0.8,0,1.5,0.7,1.6,1.5c0.3,8.9-1.9,13.7-10.9,21.4c-4.7,4-8,11.7-12.5,13.9c-5.1,2.7-9,2.6-14.7,2.9
		c-4.7,0.1-9.2-1.5-13.5-3.1c-5.8-2.4-12.3-6.3-15.6-12.4c-2.9-6.2-8.3-16.3-6.5-23.3c0.1-0.4,0.5-0.7,1-0.7l1.5,0
		c0.6,0,1.2,0.5,1.3,1.1c1,5.3,11.4,28.7,33.3,31.1c6.3,0.7,10.4-0.5,15.1-4.7c1.5-1.3,6.8-7.9,8.4-9.8c5.5-6.3,8.9-7.9,9.9-16.4
		C316.7,190.7,317.3,190.1,318.1,190.1L318.1,190.1z"/>
	<path d="M296.7,190.1c0.7,0,1.3,0.5,1.4,1.3c1,7.9-5,14.4-13.8,15.1c-1.2,0.1-2.4,0-3.6-0.1c-0.8-0.1-1.5-0.2-1.5-0.2
		c-3.1-0.4-6.1-1.1-8.6-3.4c-3.3-2.6-5.7-8.2-3.3-12c0.2-0.4,0.7-0.6,1.1-0.6h0c0.8,0,2.2-1.1,3.7,4.7c1.2,4.8,13.1,6.2,17.1,5.4
		c7.6-1.6,6.1-8.3,7.1-9.9C296.4,190.2,296.6,190.1,296.7,190.1L296.7,190.1z"/>
	<path d="M454,356.2"/>
	<path d="M462.1,190.1c0.8,0,1.5,0.6,1.5,1.4c-0.2,10.6-4.8,21-5.8,31.4c-0.5,5.4-0.3,11-1.5,16.6c-1.1,5.6-3.6,10.9-7,15.5
		c-3.1,4.4-7.6,8-9.1,13.2c-0.8,2.4-1.1,5-1.5,7.8c-0.5,5.7-3.4,11.8-7.7,15.7c-14,13.9-31.7,23.7-48.3,34.1
		c-9.3,5.8-18,12.9-28,18.7c-5,2.9-10.3,5.4-16.1,7.1c-5.8,1.7-11.5,2.5-17.3,3c-11.6,0.9-23,0.7-34.6-0.9c0,0-2.2-0.4-2.2-0.4
		c-4.7-1.1-9.3-1.9-14.1-2.3c-11-1.1-23.9,2.4-35.1,2.2c-14.1,0.1-21.9-5.1-32.6-14.9c-8.5-7.8-14.5-17-22.7-24.4
		c-6.6-6.2-14.4-10.7-23.2-13c-20.3-4.7-36-18-40.1-38.5c-0.6-2.7-0.8-5.5-1.3-8.2c-1.7-7.9-5.8-14.8-9.1-22.4
		c-4.7-10-7.1-21.4-3.3-32.1c0.2-0.6,0.8-0.8,1.4-0.7l0,0c0.6,0.2,0.9,0.7,0.8,1.3c-2.1,10.5,0,20.4,5.4,29.5
		c4.8,8.4,10.8,17.2,12.4,27.1c2.2,11.2,8.4,21.6,18.4,27.7c4.3,2.7,9.1,4.6,14.1,5.9c2.3,0.6,5.5,1.2,8.4,2.2
		c14.6,4.5,25.9,15.1,35.2,26.4c6.7,7.8,10.2,16.3,20,19.5c4.9,1.6,13.1,1.5,18.4,1.8c11.3,0.5,22.7,0.8,34,2.2
		c5,0.6,10,1.5,14.9,2.8c0,0,1.9,0.4,1.9,0.4c10.6,1.9,21.9,2.3,32.7,1.7c5.4-0.3,10.9-1,15.9-2.3c16.1-4.5,28.5-15.5,43-24.1
		c14.5-8.5,16.3-19.9,31.5-26.7c13.4-6,19.1-7,21.5-11.5c2.5-4.8,2.2-10.5,4.2-15.7c1.8-5.6,6.6-9.3,10-13.8
		c3.3-4.3,5.7-9.1,6.9-14.3c1.3-5.2,1.3-10.7,2-16.3c1.4-10.5,4.6-20.7,5-31.2C460.7,190.7,461.3,190.1,462.1,190.1L462.1,190.1z"/>
	<g>
		<path d="M123,107.7c2.8,4.8,4.1,10.5,4.1,16.9c0,2.6-0.2,5.5-0.7,8.5c-2.5,13.7-8.8,23-19.1,28c-10.3,5-23.5,7.5-39.6,7.5
			c-4.8,0-19.7-0.9-44.7-2.8c3.7-19.8-1.2-110.6-0.5-129.7v-30c13.5-3.8,26.5-5.8,38.9-5.8c17.4,0,31.6,3.8,42.7,11.4
			c11.1,7.6,16.7,20.1,16.7,37.4c0,11.2-3.9,23.4-11.8,36.6v-0.2c-0.3,0.6-0.5,1.1-0.5,1.4c0,0.5,0.5,1.2,1.4,2.1v0.2
			C116,96.8,120.3,102.9,123,107.7z M83.2,111.5v0.2c-0.8-1.7-1.8-3.2-3.2-4.6c-1.4-1.4-2.8-2.2-4.1-2.5c-2.5-0.6-6.1-1.1-10.8-1.4
			c-0.5,0-1,0-1.5,0.1c-0.5,0.1-1.1,0-1.7-0.1c-1.5,6.5-2.3,12.1-2.3,16.8c0,5.5,0.8,9.8,2.5,12.9c5.5,0.2,9.9,0,13-0.6
			c3.1-0.5,5.8-2.1,7.9-4.7c1.1-1.5,1.6-4.1,1.6-7.6C84.5,117.4,84.1,114.6,83.2,111.5z M61,39.9c0.5,2.6,0.7,6.6,0.7,12v8.3
			c0,3.8,0.1,6.8,0.2,9h6.7c6.8,0,11.4-2.3,13.8-6.9c2-3.7,3-6.7,3-9c0-1.4-0.3-2.7-0.9-3.9C78.5,36.4,66.1,39.6,61,39.9z"/>
		<path d="M241.2,168.7c-6.8,0-14.1-0.8-22.1-2.5c-1.1-2.9-2.8-9.1-5.1-18.4c-2.3-9.5-4.1-15.8-5.5-18.9l-4.6-0.2l-8.2-0.7
			c-1,5.2-11.9,42.7-13.4,50c-1.5,0.3-3.8,0.5-6.9,0.5c-1.4,0-24-0.2-25.5-0.2c0-0.8,0.2-2.6,0.5-5.4c0.3-2.8,1.7-17.8,2.3-21.3
			l5.1-29c4-23.8,7.8-44.5,11.4-62.2c3.6-17.7,8.3-36.3,14.2-56c2.1-0.3,5.1-0.5,8.8-0.5h1.4c10,0,19.7-0.4,29.3-1.2
			c1.8,7.2,3.5,14.3,5.1,21.3c1.5,7,2.9,13.2,4.1,18.8c4.9,21.4,8.2,35.6,9.9,42.6l15.2,81.8C252.2,168.1,246.9,168.7,241.2,168.7z
			 M204.1,53.2l-0.2-2.3l-0.5,5.5c-0.5,11.5-4.1,42.9-4.1,42.9h9.7C205.6,68.6,204,53.2,204.1,53.2z"/>
		<path d="M393.9,147.2c3.8,6.5,9.6,15.5,12,22.1h-3.7c-1.8,0-6,0.2-12.4,0.5c-6.5,0.3-11.6,0.5-15.4,0.5c-2.2,0-5.4-0.2-9.7-0.5
			l-3.9-0.2c-10-22.7-21.6-42.3-29.4-53.7v6c0,9.5,0.5,21.8,1.6,36.9v-0.2c0.2,1.1,0.2,2.9,0.2,5.5c-5.2,2.5-13.8,3.7-25.8,3.7
			l-5.5-0.2h-12.2c-1.7,0-2.5-13.9-2.5-41.7c0-25.2-0.2-50.4-0.7-75.7c-0.5-25.3-1.2-40.4-2.1-45.5l6.2-0.9
			c9.2-1.2,16.8-2.1,22.8-2.8c6-0.6,12.1-0.9,18.4-0.9c6.8,0,12.5,0.3,17.3,0.9c8.9,1.1,17.2,4.1,25,9.2c7.8,5.1,14,11.3,18.7,18.7
			c4.7,7.4,7,15,7,22.8c0,7.5-2.5,15.7-7.4,24.7c-3.1,5.5-7.1,10.1-12.2,13.8c-5.1,3.7-11.1,5.9-18.2,6.7c4.1,7.4,9,15.1,14.5,23
			c1.1,1.8,1.9,3.1,2.5,3.7C385.1,132.9,390.1,140.8,393.9,147.2z M350.9,60.1c1.2-2.5,1.8-5.4,1.8-8.8c0-6.3-1.5-10.4-4.6-12.2
			c-2-1.2-4-2-6.1-2.3c-2.1-0.3-4.4-0.5-7-0.5l-9.9,1.6c0.3,4.6,0.5,8.5,0.5,11.8c0,8.3,0.2,13.4,0.7,15.2c2.6,0.3,5.8,0.5,9.7,0.5
			c3.5,0,6.8-0.2,9.9-0.7C348,64.1,349.7,62.6,350.9,60.1z"/>
		<path d="M539.8,171.1c-5.1,1.2-28.7-0.3-35-2.8c-4.2-1.6-7.7-4.4-10.2-8.1c-2.1-3-4.1-6.3-5.9-9.7c-3.2-6.1-6.8-13.6-10.8-22.7
			c-0.8-1.5-1.4-3.3-2-5.2c-0.5-1.9-0.8-3-0.8-3.3l-0.7-2.8l-0.9-3c0,7.8,0.2,17.6,0.5,29.3c0.3,9.5,1.3,21.8,1.3,27.4
			c-5.4,1.7-16.6-1.7-24.1-2c-7.5-0.3-10.7-1.1-17.3-2.6c-0.6-13.4,1.4-23.8,1.4-40.7c0-18.3,0.4-39.7,0.9-57.9
			c0.5-18.4-1.8-40.4-1.8-63c5.1-0.2,12.2-0.1,21.4,0.2c2.9,0.2,8.4,0.2,16.4,0.2c0.2,5.8,0.2,20.1,0.2,42.9v4.6
			c5.1-8.1,9.2-15.5,12.4-22.1c5.4-10.3,10.5-18.9,15.4-25.8l15.2,0.2c7.8-0.3,15.2,0.1,22.1,1.2c-1.8,6.5-4.4,12.9-7.6,19.2
			c-3.2,6.4-7.8,14.6-13.6,24.8l-1.4,2.3c-5.8,9.2-11.4,19.8-16.8,31.8L539.8,171.1z"/>
	</g>
</g>
</svg>
